<svg width="50" height="50" fill="none" xmlns="http://www.w3.org/2000/svg"><path d="M1.5 2.34H35c7.456 0 13.5 6.044 13.5 13.5v31.973H15c-7.456 0-13.5-6.044-13.5-13.5V2.34Z" stroke="#E02025" stroke-width="3"/><g clip-path="url(#a)"><path d="m30.402 34.959-.364 1.44c-1.09.416-1.96.734-2.608.952-.65.219-1.403.328-2.262.328-1.32 0-2.346-.314-3.078-.936-.732-.625-1.098-1.417-1.098-2.377 0-.372.026-.755.082-1.144.055-.39.144-.83.265-1.32l1.362-4.674c.121-.448.224-.872.307-1.273.084-.398.124-.765.124-1.095 0-.597-.128-1.014-.381-1.25-.254-.233-.738-.352-1.457-.352a3.93 3.93 0 0 0-1.083.16c-.37.107-.687.21-.953.304l.364-1.44a34.797 34.797 0 0 1 2.56-.904C23 21.126 23.77 21 24.5 21c1.31 0 2.321.307 3.031.92.71.615 1.065 1.412 1.065 2.393 0 .204-.023.561-.073 1.073-.05.512-.14.982-.273 1.41l-1.356 4.654c-.112.374-.212.801-.299 1.282-.09.478-.132.843-.132 1.088 0 .618.142 1.04.427 1.265.287.224.782.336 1.484.336.33 0 .705-.057 1.122-.169.415-.111.719-.209.907-.294Zm.344-19.543c0 .811-.316 1.504-.95 2.073-.631.572-1.393.858-2.284.858-.893 0-1.657-.286-2.296-.858-.638-.57-.957-1.262-.957-2.073 0-.81.32-1.503.957-2.08.638-.575 1.403-.863 2.296-.863.891 0 1.653.288 2.285.863.634.577.949 1.271.949 2.08Z" fill="#E02025"/></g><defs><clipPath id="a"><path fill="#fff" transform="translate(12 12.473)" d="M0 0h26v25.206H0z"/></clipPath></defs></svg>