<svg width="70" height="71" fill="none" xmlns="http://www.w3.org/2000/svg"><path d="M2 2.916h53c7.18 0 13 5.82 13 13v53H15c-7.18 0-13-5.82-13-13v-53Z" stroke="#E02025" stroke-width="4"/><path d="M26.704 25.473a.625.625 0 0 1-.41.783l-1.192.374 2.398 7.665V23.914l-1.17.366.374 1.193ZM39.702 52.166H32.5a.625.625 0 0 1-.625-.625v-1.25h-1.25a.625.625 0 0 1-.625-.625v-27.5a.625.625 0 0 1 .625-.625h1.25v-1.25a.625.625 0 0 1 .625-.625H40a.625.625 0 0 1 .625.625v1.25h1.25a.625.625 0 0 1 .625.625v20.808l.32.442h.93v-25h-15v35h12.304a6.932 6.932 0 0 1-1.352-1.25Z" fill="#E02025"/><path d="M27.502 42.666V38.48l-3.778-12.073a.626.626 0 0 1 .41-.784l1.192-.373-.374-1.193a.625.625 0 0 1 .41-.783l2.14-.67v-1.31L21.41 23.2l6.092 19.465ZM39.363 38.633l1.887 2.611V22.791H40a.625.625 0 0 1-.625-.625v-1.25h-6.25v1.25a.625.625 0 0 1-.625.625h-1.25v26.25h1.25a.625.625 0 0 1 .625.625v1.25h5.753a6.829 6.829 0 0 1-.75-2.949l-3.938-5.826a3.133 3.133 0 0 1-.173-3.213 3.752 3.752 0 1 1 5.106-.603c.086.097.167.2.24.308Z" fill="#E02025"/><path d="M44.998 31.541v12.5a.625.625 0 0 1-.625.625h-1.875a.625.625 0 0 1-.506-.259l-3.65-5.05-.01-.016a1.874 1.874 0 1 0-3.107 2.1l4.054 6a.625.625 0 0 1 .096.468 5.632 5.632 0 0 0 5.623 5.507h3.75V39.041c0-.308-.076-.61-.22-.882l-3.53-6.618Z" fill="#E02025"/><path d="M33.75 35.916a2.498 2.498 0 0 0 1.065 2.046 3.103 3.103 0 0 1 1.731-.686 3.126 3.126 0 0 1 1.577.295 2.5 2.5 0 1 0-4.373-1.655Z" fill="#E02025"/></svg>